<svg width="14" height="16" viewBox="0 0 14 16" fill="none" xmlns="http://www.w3.org/2000/svg">
<path fill-rule="evenodd" clip-rule="evenodd" d="M6.99999 0C4.79099 0 2.99999 1.791 2.99999 4V5H1.99999C1.48999 5 1.062 5.38301 1.006 5.89001L0.00600183 14.89C-0.0249982 15.172 0.0649948 15.455 0.254995 15.667C0.444995 15.879 0.71599 16 0.99999 16H13C13.284 16 13.555 15.879 13.745 15.667C13.935 15.455 14.025 15.172 13.994 14.89L12.994 5.89001C12.938 5.38301 12.51 5 12 5H11V4C11 1.791 9.20899 0 6.99999 0ZM8.99999 5V4C8.99999 2.895 8.10499 2 6.99999 2C5.89499 2 4.99999 2.895 4.99999 4V5H8.99999ZM2.99999 8C2.99999 7.448 3.44799 7 3.99999 7C4.55199 7 4.99999 7.448 4.99999 8C4.99999 8.552 4.55199 9 3.99999 9C3.44799 9 2.99999 8.552 2.99999 8ZM9.99999 7C9.44799 7 8.99999 7.448 8.99999 8C8.99999 8.552 9.44799 9 9.99999 9C10.552 9 11 8.552 11 8C11 7.448 10.552 7 9.99999 7Z" fill="#9CA3AF"/>
</svg>
